<mxfile host="app.diagrams.net" modified="2022-12-23T06:56:00.264Z" agent="5.0 (Windows NT 10.0; Win64; x64) AppleWebKit/537.36 (KHTML, like Gecko) Chrome/108.0.0.0 Safari/537.36" etag="1-LCKA0SPB5WTs4XvB4N" version="20.5.3" type="github">
  <diagram id="snrbQYV0I0txxKWUja8V" name="Page-1">
    <mxGraphModel dx="1422" dy="1207" grid="1" gridSize="10" guides="1" tooltips="1" connect="1" arrows="1" fold="1" page="1" pageScale="1" pageWidth="583" pageHeight="413" math="0" shadow="0">
      <root>
        <mxCell id="0" />
        <mxCell id="1" parent="0" />
        <mxCell id="8Ti1AulRLpCf9RsncprA-1" value="&lt;font style=&quot;font-size: 15px;&quot;&gt;jobs=[{name:job1,interval:10},{name:job2,interval:10},&lt;span style=&quot;&quot;&gt;{name:job3,interval:10},&lt;/span&gt;{name:job4,interval:10},{name:job5,interval:10},{name:job6,interval:10},{name:job7,interval:10},{name:job8,interval:10},{name:job9,interval:10},{name:job10,interval:10},{name:job11,interval:10},{name:job12,interval:10},{name:job13,interval:10},{name:job14,interval:10},{name:job15,interval:10},{name:job16,interval:10},&lt;br&gt;{name:job17,interval:10},{name:job18,interval:10}&lt;br&gt;{name:job19,interval:10},{name:job20,interval:10},&lt;br&gt;{name:job21,interval:10},{name:job22,interval:10},&lt;br&gt;{name:job23,interval:10}&lt;br&gt;]&lt;/font&gt;" style="rounded=0;whiteSpace=wrap;html=1;" vertex="1" parent="1">
          <mxGeometry x="90" y="-180" width="430" height="240" as="geometry" />
        </mxCell>
      </root>
    </mxGraphModel>
  </diagram>
</mxfile>
